# xmcd
#
# Track frame offsets:
#	150
#	12187
#	25770
#	38365
#	50772
#	67780
#	83735
#	97902
#	113372
#	129907
#	144557
#	153927
#
# Disc length: 2230 seconds
#
# Revision: 1
# Processed by: cddbd v1.5.1PL0 Copyright (c) Steve Scherf et al.
# Submitted via: EasyCDDAExtractor 6.5.7.1
#
DISCID=7e08b40c
DTITLE=Various Artist - Fandango de Galpão
DYEAR=1900
DGENRE=Gaúcha
TTITLE0=Os Guapos - Churrasco
TTITLE1=Carlinhos Gaudério - Nrgócio da Vizinha
TTITLE2=Amaro e Iti - Chote Rock
TTITLE3=Beto Caetano - Entrevero de Alemão
TTITLE4=Os Lendários - Chimarrão Entupido
TTITLE5=Porca Véia - Serenata
TTITLE6=Gaúcho Guapo - Vaneirinha de Namoro
TTITLE7=Grupo Caverá - Bugio de São Francisco
TTITLE8=Grupo Querência - Gauderiada
TTITLE9=Grupo Califórnia - Mala de Garupa
TTITLE10=Grupo Minuano - Recado do Patrão
TTITLE11=Gaúcho da Fronteira - Por debaixo dos panos
EXTD=
EXTT0=
EXTT1=
EXTT2=
EXTT3=
EXTT4=
EXTT5=
EXTT6=
EXTT7=
EXTT8=
EXTT9=
EXTT10=
EXTT11=
PLAYORDER=
